<?xml version="1.0" ?><!DOCTYPE svg  PUBLIC '-//W3C//DTD SVG 1.0//EN'  'http://www.w3.org/TR/2001/REC-SVG-20010904/DTD/svg10.dtd'><svg height="110px" style="enable-background:new 0 0 110 110;" version="1.0" viewBox="0 0 110 110" width="110px" xml:space="preserve" xmlns="http://www.w3.org/2000/svg" xmlns:xlink="http://www.w3.org/1999/xlink"><g id="Artboard"/><g id="Multicolor"><circle cx="55" cy="55" r="55" style="fill:#E04F5F;"/><g><path d="M31,80c0-1.954,0.072-3.842,0.196-5.684L27,79l-4,8l7-2l6.338-5.171C34.599,79.94,32.822,80,31,80z    " style="fill:#3E3E3F;"/><path d="M64.78,59.7c1.38,0.56,2.8,1.05,4.28,1.43c2.1,0.55,4.2,0.9,6.29,1.06c0,0-0.01,0.01-0.02,0.02    C74.82,62.55,66.62,68,55,68c3.08,1.76,6.54,2.74,9.8,3.3C55.98,76.85,44.64,80,31,80c0-35,20-52,56-52    c0,11.84-3.12,22.44-9.11,30.92C73.7,59.99,69.26,60.29,64.78,59.7z" style="fill:#F0F1F1;"/><path d="M87,28c-36,0-56,17-56,52c1.424,0,2.816-0.042,4.19-0.11l51.809-51.809    C86.999,28.054,87,28.027,87,28z" style="fill:#FFFFFF;"/></g></g></svg>